<svg xmlns="http://www.w3.org/2000/svg" viewBox="0 0 512 512">
<defs>
 <linearGradient id="bg" x1="0" y1="0" x2="1" y2="1"><stop stop-color="#071a2d"/><stop offset=".55" stop-color="#124a68"/><stop offset="1" stop-color="#087443"/></linearGradient>
 <linearGradient id="green" x1="0" y1="0" x2="1" y2="1"><stop stop-color="#39ff6a"/><stop offset="1" stop-color="#12a84a"/></linearGradient>
 <filter id="shadow"><feDropShadow dx="0" dy="8" stdDeviation="10" flood-opacity=".45"/></filter>
</defs>
<rect x="8" y="8" width="496" height="496" rx="92" fill="url(#bg)" stroke="url(#green)" stroke-width="16"/>
<circle cx="256" cy="205" r="66" fill="#101820"/>
<path d="M142 376c18-92 67-130 114-130s96 38 114 130v35H142z" fill="#111820"/>
<path d="M184 274l-30 92M328 274l30 92" stroke="#2563eb" stroke-width="24" stroke-linecap="round"/>
<circle cx="381" cy="330" r="57" fill="#fff" stroke="#d8e1e8" stroke-width="5" filter="url(#shadow)"/>
<path d="M381 291l14 10-5 18-18 6-14-12 6-18zM430 321l-19 1-8 17 12 14 18-6 5-18zM379 386l-15-15 7-17 19-1 11 15-8 17zM334 347l18-2 10 15-8 18-19-3-7-17z" fill="#17212b"/>
<path d="M192 161h128" stroke="#fff" stroke-width="14" stroke-linecap="round" opacity=".95"/>
<text x="256" y="453" text-anchor="middle" font-family="Arial,Helvetica,sans-serif" font-size="43" font-weight="900" fill="#fff" letter-spacing="2">DÉLÉGUÉ</text>
<text x="256" y="485" text-anchor="middle" font-family="Arial,Helvetica,sans-serif" font-size="22" font-weight="800" fill="#b8ff32" letter-spacing="5">FOOTBALL</text>
</svg>